<svg id="Group_60" data-name="Group 60" xmlns="http://www.w3.org/2000/svg" width="24.748" height="21.723" viewBox="0 0 24.748 21.723">
  <g id="ic_photo_camera_24px">
    <circle  cx="3.2" cy="3.2" r="3.2" transform="translate(5.299 5.216)" fill="#707070"/>
    <path  d="M7.949,2,6.394,3.7H3.7A1.7,1.7,0,0,0,2,5.4V15.6a1.7,1.7,0,0,0,1.7,1.7H17.3A1.7,1.7,0,0,0,19,15.6V5.4a1.7,1.7,0,0,0-1.7-1.7H14.6L13.048,2ZM10.5,14.748A4.249,4.249,0,1,1,14.748,10.5,4.251,4.251,0,0,1,10.5,14.748Z" transform="translate(-2 -2)" fill="#707070"/>
  </g>
  <path id="ic_audiotrack_24px" d="M11.192,3v8.03a3.8,3.8,0,0,0-1.3-.242,3.894,3.894,0,1,0,3.85,4.326h.043V5.6h3.461V3Z" transform="translate(7 2.649)" fill="#707070" stroke="#fff" stroke-width="1"/>
</svg>
