<svg width="17" height="17" viewBox="0 0 17 17" xmlns="http://www.w3.org/2000/svg">
    <path fill="#707070" d="M 16.684999 8.042999 L 8.949 0.308001 C 8.627602 -0.013262 8.191428 -0.193201 7.737 -0.191999 L 1.719 -0.191999 C 0.770762 -0.189255 0.002746 0.578762 0 1.527 L 0 7.545 C -0.000972 8.003402 0.181611 8.443114 0.507 8.766 L 8.244 16.503 C 8.565398 16.824263 9.001572 17.004202 9.456 17.003 C 9.912048 17.005405 10.349501 16.822411 10.668 16.496 L 16.684999 10.479 C 17.01141 10.160501 17.194405 9.723047 17.191999 9.267 C 17.191452 8.80802 17.009161 8.367934 16.684999 8.042999 Z M 3.009 4.108 C 2.297627 4.106895 1.721633 3.529708 1.722002 2.818335 C 1.72237 2.10696 2.298961 1.53037 3.010334 1.530002 C 3.721708 1.529634 4.298895 2.105627 4.3 2.816999 C 4.300799 3.159638 4.16504 3.488474 3.922757 3.730757 C 3.680474 3.97304 3.351639 4.108799 3.009 4.108 Z"/>
</svg>
