<svg xmlns="http://www.w3.org/2000/svg" width="400.18" height="76.542" viewBox="0 0 400.18 76.542">
  <path id="Logo_whit" data-name="Logo whit" d="M6.8-61.158a2.021,2.021,0,0,1,.489-1.424,1.783,1.783,0,0,1,1.381-.531H36.89a17.687,17.687,0,0,1,7.055,1.424,18.371,18.371,0,0,1,5.8,3.91,18.6,18.6,0,0,1,3.931,5.822A17.822,17.822,0,0,1,55.123-44.8a17.191,17.191,0,0,1-1,5.929A16.1,16.1,0,0,1,51.3-33.958a20.737,20.737,0,0,1,4.845,6.672,19.342,19.342,0,0,1,1.785,8.2,18.383,18.383,0,0,1-1.487,7.331,20.006,20.006,0,0,1-4.016,6.077A19.1,19.1,0,0,1,46.516-1.53,17.062,17.062,0,0,1,39.4,0H8.67A1.992,1.992,0,0,1,7.31-.446,1.741,1.741,0,0,1,6.8-1.828ZM41.055-19.72a7.063,7.063,0,0,0-.49-2.55A7.525,7.525,0,0,0,39.2-24.544a7.172,7.172,0,0,0-2.087-1.636,5.552,5.552,0,0,0-2.62-.637H23.248v14.2H34.494a5.741,5.741,0,0,0,2.6-.6,6.932,6.932,0,0,0,2.087-1.594,7.306,7.306,0,0,0,1.385-2.274A7.284,7.284,0,0,0,41.055-19.72ZM38.8-44.413a6.03,6.03,0,0,0-.469-2.38,6.1,6.1,0,0,0-1.321-1.955,6.171,6.171,0,0,0-2.046-1.339,6.792,6.792,0,0,0-2.6-.489h-9.12V-38.25H32.24A7.669,7.669,0,0,0,34.9-38.7a5.78,5.78,0,0,0,2.067-1.275,6.079,6.079,0,0,0,1.342-1.955A6.165,6.165,0,0,0,38.8-44.413Zm81.77,41.268a3.793,3.793,0,0,1-.255,1.381,2.117,2.117,0,0,1-.85,1.041,2.12,2.12,0,0,1-1.1.6,5.747,5.747,0,0,1-1.1.127h-8.373a3.756,3.756,0,0,1-1.445-.234,2.23,2.23,0,0,1-.893-.659,3.827,3.827,0,0,1-.574-1.041q-.234-.616-.489-1.339l-.553-1.913a24.779,24.779,0,0,1-2.614,2.253,20.253,20.253,0,0,1-3.23,1.976,20.018,20.018,0,0,1-3.782,1.4A16.381,16.381,0,0,1,91.12.978,27.8,27.8,0,0,1,83.7,0a27.471,27.471,0,0,1-6.63-2.784,27.229,27.229,0,0,1-5.589-4.335,27.9,27.9,0,0,1-4.314-5.631,27.693,27.693,0,0,1-2.784-6.694,28.437,28.437,0,0,1-.977-7.5,27.693,27.693,0,0,1,2.167-10.986,27.966,27.966,0,0,1,5.908-8.84,27.313,27.313,0,0,1,8.8-5.907A27.452,27.452,0,0,1,91.12-54.825a19.341,19.341,0,0,1,4.909.6,18.724,18.724,0,0,1,4.165,1.615,16.479,16.479,0,0,1,3.421,2.444,18.9,18.9,0,0,1,2.678,3.081l1.232-3.868q.425-1.063.7-1.721a3.058,3.058,0,0,1,.6-.978,1.582,1.582,0,0,1,.786-.425,6.283,6.283,0,0,1,1.318-.106h6.333a5.746,5.746,0,0,1,1.1.128,2.12,2.12,0,0,1,1.1.6,2.721,2.721,0,0,1,.85,1.063,3.424,3.424,0,0,1,.255,1.36ZM78.71-26.945a15.516,15.516,0,0,0,.871,5.249,12.457,12.457,0,0,0,2.486,4.229,11.807,11.807,0,0,0,3.889,2.826A11.953,11.953,0,0,0,90.993-13.6a13.357,13.357,0,0,0,5.291-1.041,13.516,13.516,0,0,0,4.25-2.826A12.811,12.811,0,0,0,103.36-21.7a13.488,13.488,0,0,0,1.02-5.249,13.428,13.428,0,0,0-1.02-5.185,13.736,13.736,0,0,0-2.826-4.335,13.394,13.394,0,0,0-4.25-2.954A12.9,12.9,0,0,0,90.993-40.5a11.555,11.555,0,0,0-5.036,1.084,11.765,11.765,0,0,0-3.889,2.954,13.382,13.382,0,0,0-2.486,4.335A15.444,15.444,0,0,0,78.71-26.945Zm60.138,10.157a12.371,12.371,0,0,0,2.486,1.934,18.775,18.775,0,0,0,2.571,1.275,15.075,15.075,0,0,0,2.168.7,7.056,7.056,0,0,0,1.275.213q.807,0,2.061-.064a11.04,11.04,0,0,0,2.4-.382,4.994,4.994,0,0,0,1.976-1.041,2.562,2.562,0,0,0,.829-2.04,3.367,3.367,0,0,0-.467-1.891,3.759,3.759,0,0,0-1.36-1.19,11.162,11.162,0,0,0-2.189-.871q-1.3-.382-2.911-.892a35,35,0,0,1-8.415-3.272,18.888,18.888,0,0,1-5.249-4.271,13.908,13.908,0,0,1-2.7-5.079,21.1,21.1,0,0,1-.765-5.737,14.5,14.5,0,0,1,1.4-6.417,14.171,14.171,0,0,1,4-4.951,18.889,18.889,0,0,1,6.205-3.187A26.911,26.911,0,0,1,150.2-55.08a26.74,26.74,0,0,1,5.015.446,19.951,19.951,0,0,1,4.462,1.4,22.024,22.024,0,0,1,4.144,2.465,32.866,32.866,0,0,1,4.016,3.591,2.662,2.662,0,0,1,.744,1.594,2.2,2.2,0,0,1-.956,1.594q-1.657,1.36-3.166,2.678t-3.124,2.932a2.365,2.365,0,0,1-1.02.531,2.066,2.066,0,0,1-.977-.021,2.865,2.865,0,0,1-.893-.425,3.683,3.683,0,0,1-.765-.723,7.4,7.4,0,0,0-3.4-2.231,12.466,12.466,0,0,0-3.57-.574,6.538,6.538,0,0,0-3.315.722,2.227,2.227,0,0,0-1.147,2.21,2.362,2.362,0,0,0,.829,1.721,5.925,5.925,0,0,0,1.827,1,15.992,15.992,0,0,0,2.295.616q1.211.234,2.231.531a66.12,66.12,0,0,1,7.012,2.678,21.381,21.381,0,0,1,5.525,3.549,14.672,14.672,0,0,1,3.634,5.036,17.619,17.619,0,0,1,1.3,7.14A16.418,16.418,0,0,1,169.214-9.1,16.106,16.106,0,0,1,164.6-3.528a21.138,21.138,0,0,1-6.949,3.443,30.314,30.314,0,0,1-8.649,1.19A31.574,31.574,0,0,1,143.65.638a25.183,25.183,0,0,1-5.27-1.509,23.867,23.867,0,0,1-4.845-2.678,19,19,0,0,1-4.08-3.974,4.416,4.416,0,0,1-.7-1.254,3.5,3.5,0,0,1-.213-1.3,3.134,3.134,0,0,1,.255-1.169,2.289,2.289,0,0,1,.744-.914l5.482-5.483a1.938,1.938,0,0,1,1.806-.595A6.018,6.018,0,0,1,138.848-16.788ZM225.207-6.46a28.314,28.314,0,0,1-8.415,5.376A25.65,25.65,0,0,1,206.89.85a28.742,28.742,0,0,1-11.008-2.125,28.655,28.655,0,0,1-9.1-5.886,28.245,28.245,0,0,1-6.2-8.861,26.716,26.716,0,0,1-2.3-11.092,28.616,28.616,0,0,1,.914-7.246,28.571,28.571,0,0,1,2.592-6.566,27.842,27.842,0,0,1,4.08-5.631,25.812,25.812,0,0,1,5.376-4.4,26.5,26.5,0,0,1,6.46-2.847,26.046,26.046,0,0,1,7.353-1.02,25.085,25.085,0,0,1,6.842.935,26.625,26.625,0,0,1,6.226,2.635,27.042,27.042,0,0,1,5.334,4.08,27.548,27.548,0,0,1,4.165,5.206,25.114,25.114,0,0,1,2.7,6.035,23.017,23.017,0,0,1,.956,6.609q0,2.21-.064,3.613a4.083,4.083,0,0,1-.659,2.231,3.2,3.2,0,0,1-1.976,1.148,19.343,19.343,0,0,1-4.059.319h-30.6a10.566,10.566,0,0,0,1.721,4.547,10.8,10.8,0,0,0,3,2.911,11.969,11.969,0,0,0,3.613,1.551,15.237,15.237,0,0,0,3.612.468,16.226,16.226,0,0,0,3.145-.319,22.524,22.524,0,0,0,3.124-.85,17.675,17.675,0,0,0,2.762-1.232,9.183,9.183,0,0,0,2.019-1.466,8.852,8.852,0,0,1,1.169-.829,2.083,2.083,0,0,1,1.041-.276,2.028,2.028,0,0,1,1.126.383,8.876,8.876,0,0,1,1.3,1.1l4.505,5.1a2.836,2.836,0,0,1,.6,1,3.31,3.31,0,0,1,.128.914,2.356,2.356,0,0,1-.467,1.466A5.346,5.346,0,0,1,225.207-6.46Zm-20.442-35.4a8.131,8.131,0,0,0-3.209.659,12.109,12.109,0,0,0-2.911,1.764,15.168,15.168,0,0,0-2.444,2.508,15.377,15.377,0,0,0-1.764,2.847h21.717a25.033,25.033,0,0,0-1.934-3.06,13.1,13.1,0,0,0-2.38-2.465,10.279,10.279,0,0,0-3.06-1.658A12.3,12.3,0,0,0,204.765-41.863Zm35.4-24.9a3.8,3.8,0,0,1,.68-2.3A2.7,2.7,0,0,1,243.185-70H253.6a2,2,0,0,1,.893.234,3.144,3.144,0,0,1,.871.659,3.772,3.772,0,0,1,.68,1.02,3.091,3.091,0,0,1,.276,1.318v63.5A3.133,3.133,0,0,1,255.4-.829,3.376,3.376,0,0,1,253.045,0h-9.86a2.872,2.872,0,0,1-2.337-.829,3.779,3.779,0,0,1-.68-2.444ZM266.9-50.66A3.679,3.679,0,0,1,267.665-53a2.835,2.835,0,0,1,2.38-.978h9.732a3.038,3.038,0,0,1,1.105.234,3.76,3.76,0,0,1,1.1.68,4.425,4.425,0,0,1,.871,1.041,2.568,2.568,0,0,1,.361,1.36V-3.273a3.173,3.173,0,0,1-.892,2.444,3.611,3.611,0,0,1-2.55.829h-9.732Q266.9,0,266.9-3.273Zm0-21.505a3.438,3.438,0,0,1,.765-2.529,3.305,3.305,0,0,1,2.38-.744h9.86a3.685,3.685,0,0,1,2.4.744,3.09,3.09,0,0,1,.914,2.529v8.287a3.037,3.037,0,0,1-.234,1.1,4.7,4.7,0,0,1-.659,1.148,3.589,3.589,0,0,1-1.041.914,2.68,2.68,0,0,1-1.381.361h-9.86q-3.145,0-3.145-3.528Zm28.05,18.95a2.629,2.629,0,0,1,1.169-.6,5.776,5.776,0,0,1,1.169-.127H303.7a2.916,2.916,0,0,1,1.318.276,2.83,2.83,0,0,1,.935.743,3.93,3.93,0,0,1,.616,1.06q.234.593.446,1.229l.893,3.729a10.106,10.106,0,0,1,2.061-2.712,15.7,15.7,0,0,1,3.527-2.543,22.238,22.238,0,0,1,4.866-1.886,23.762,23.762,0,0,1,6.163-.742,19.4,19.4,0,0,1,8.649,1.865,19.257,19.257,0,0,1,6.46,5.086,22.486,22.486,0,0,1,4.038,7.528,29.933,29.933,0,0,1,1.381,9.194V-3.273a3.7,3.7,0,0,1-.7,2.444A2.767,2.767,0,0,1,342.125,0h-9.818A3.8,3.8,0,0,1,329.8-.616a3.218,3.218,0,0,1-.68-2.4V-30.685a7.563,7.563,0,0,0-.829-3.464,10.124,10.124,0,0,0-2.189-2.89,10.513,10.513,0,0,0-3.081-1.976,8.983,8.983,0,0,0-3.506-.722,7.924,7.924,0,0,0-3.124.68,10.485,10.485,0,0,0-2.932,1.891,11.114,11.114,0,0,0-2.253,2.847,8.321,8.321,0,0,0-1.041,3.549V-3.145a4.021,4.021,0,0,1-.276,1.445A2.3,2.3,0,0,1,309.06-.6a3.888,3.888,0,0,1-1.041.468A4.481,4.481,0,0,1,306.892,0h-9.6a3.4,3.4,0,0,1-2.635-.893,3.412,3.412,0,0,1-.807-2.38V-50.8a3.106,3.106,0,0,1,.361-1.483,2.669,2.669,0,0,1,1-1.06ZM400.9-6.46a28.314,28.314,0,0,1-8.415,5.376,25.65,25.65,0,0,1-9.9,1.934,28.742,28.742,0,0,1-11.008-2.125,28.655,28.655,0,0,1-9.1-5.886,28.245,28.245,0,0,1-6.2-8.861,26.716,26.716,0,0,1-2.3-11.092,28.616,28.616,0,0,1,.914-7.246,28.571,28.571,0,0,1,2.592-6.566,27.842,27.842,0,0,1,4.08-5.631,25.814,25.814,0,0,1,5.376-4.4,26.5,26.5,0,0,1,6.46-2.847,26.046,26.046,0,0,1,7.352-1.02,25.085,25.085,0,0,1,6.842.935,26.625,26.625,0,0,1,6.226,2.635,27.042,27.042,0,0,1,5.334,4.08,27.547,27.547,0,0,1,4.165,5.206,25.116,25.116,0,0,1,2.7,6.035,23.017,23.017,0,0,1,.956,6.609q0,2.21-.064,3.613a4.083,4.083,0,0,1-.659,2.231,3.2,3.2,0,0,1-1.976,1.148,19.343,19.343,0,0,1-4.059.319h-30.6a10.566,10.566,0,0,0,1.721,4.547,10.8,10.8,0,0,0,3,2.911,11.969,11.969,0,0,0,3.612,1.551,15.238,15.238,0,0,0,3.613.468,16.226,16.226,0,0,0,3.145-.319,22.523,22.523,0,0,0,3.124-.85,17.675,17.675,0,0,0,2.763-1.232,9.183,9.183,0,0,0,2.019-1.466,8.853,8.853,0,0,1,1.169-.829,2.083,2.083,0,0,1,1.041-.276,2.028,2.028,0,0,1,1.126.383,8.875,8.875,0,0,1,1.3,1.1l4.505,5.1a2.836,2.836,0,0,1,.6,1,3.31,3.31,0,0,1,.127.914,2.356,2.356,0,0,1-.467,1.466A5.346,5.346,0,0,1,400.9-6.46Zm-20.443-35.4a8.131,8.131,0,0,0-3.209.659,12.108,12.108,0,0,0-2.911,1.764,15.168,15.168,0,0,0-2.444,2.508,15.378,15.378,0,0,0-1.764,2.847H391.85a25.031,25.031,0,0,0-1.934-3.06,13.1,13.1,0,0,0-2.38-2.465,10.279,10.279,0,0,0-3.06-1.658A12.3,12.3,0,0,0,380.46-41.863Z" transform="translate(-6.8 75.438)" fill="#fff"/>
</svg>
